<svg xmlns="http://www.w3.org/2000/svg" version="1.1" xmlns:xlink="http://www.w3.org/1999/xlink" xmlns:svgjs="http://svgjs.dev/svgjs" width="1500" height="1205" viewBox="0 0 1500 1205"><g transform="matrix(1,0,0,1,0,0.3984580210021704)"><svg viewBox="0 0 448 360" data-background-color="#fafafa" preserveAspectRatio="xMidYMid meet" height="1205" width="1500" xmlns="http://www.w3.org/2000/svg" xmlns:xlink="http://www.w3.org/1999/xlink"><g id="tight-bounds" transform="matrix(1,0,0,1,0,-0.11904140046539169)"><svg viewBox="0 0 448 360" height="360" width="448"><g><svg></svg></g><g><svg viewBox="0 0 448 360" height="360" width="448"><g><path transform="translate(36.9151,-7.08178) scale(0.00624,0.00624)" d="M25167 8301c221 0 400 179 400 400 0 221-179 400-400 400h-3824l-2753 2753c-156 156-409 156-566 0-156-156-156-409 0-566l2188-2188h-6475c-1847 0-3071 431-3819 1301-760 885-1068 2254-1068 4110 0 11 0 22-1 33l34 5884 2356-2356c156-156 409-156 566 0 156 156 156 409 0 566l-2915 2915c33 5746 31 11443-2 17189 4087 4041 8117 8068 12157 12154h4070c221 0 400 179 400 400 0 221-179 400-400 400h-3279l4160 4208 1-1c1313 1313 2498 2062 3660 2151 1146 87 2316-474 3622-1779l4579-4579h-3323c-221 0-400-179-400-400 0-221 179-400 400-400h4123l2666-2666c156-156 409-156 566 0 156 156 156 409 0 566l-2101 2101h6475c1847 0 3071-431 3819-1301 760-885 1068-2254 1068-4110h2l-34-5917-2568 2568c-156 156-409 156-566 0-156-156-156-409 0-566l3127-3127c-33-5746-31-11443 2-17189-4087-4041-8117-8068-12157-12154h-4193c-221 0-400-179-400-400 0-221 179-400 400-400h3402l-4141-4189c-7-6-13-12-20-18-1313-1313-2498-2062-3660-2151-1146-87-2316 474-3622 1779l-4579 4579h3024zM13737 8301h7275l5144-5144c1483-1483 2856-2116 4247-2010 1374 104 2719 934 4167 2382 8 8 15 15 22 23l4695 4749h6977c2096 0 3515 524 4425 1583 898 1045 1261 2582 1261 4629 0 13-1 25-2 37l-36 6373 4559 4508 1-1c1448 1448 2278 2792 2382 4167 106 1391-528 2764-2010 4247l-4934 4934 38 6710h2c0 2047-364 3584-1261 4629-910 1059-2329 1583-4425 1583h-7275l-5144 5144c-1483 1483-2856 2116-4247 2010-1374-104-2719-934-4167-2382l1-1-4718-4772h-6977c-2096 0-3515-524-4425-1583-898-1045-1261-2582-1261-4629h2l37-6410-4537-4485c-8-7-16-14-23-22-1448-1448-2278-2792-2382-4167-106-1391 528-2764 2010-4247l4934-4934-38-6672c-1-12-2-25-2-37 0-2047 364-3584 1261-4629 910-1059 2329-1583 4425-1583zM8141 30000l-44-7653-4374 4374c-1305 1305-1866 2476-1779 3622 88 1162 838 2348 2151 3660 6 6 13 13 18 20l3983 3937 45-7961zM8882 39860l-32 5627h2c0 1857 308 3226 1068 4110 748 871 1972 1301 3819 1301h6186l-5380-5442-5662-5597zM46264 9101h-6186l5380 5442 5662 5597 32-5594c-1-11-1-22-1-33 0-1857-308-3226-1068-4110-748-871-1972-1301-3819-1301zM51906 22039l-45 7961 44 7653 4374-4374c1305-1305 1866-2476 1779-3622-88-1163-838-2348-2151-3660l1-1-4002-3956z" fill="#130912" fill-rule="nonzero" stroke="none" stroke-width="1" stroke-linecap="butt" stroke-linejoin="miter" stroke-miterlimit="10" stroke-dasharray="" stroke-dashoffset="0" font-family="none" font-weight="none" font-size="none" text-anchor="none" style="mix-blend-mode: normal" data-fill-palette-color="tertiary"></path></g><g transform="matrix(1,0,0,1,112,138.0980222877131)"><svg viewBox="0 0 224 83.80395542457383" height="83.80395542457383" width="224"><g><svg viewBox="0 0 224 83.80395542457383" height="83.80395542457383" width="224"><g><svg viewBox="0 0 372.9587005326292 139.53309961894394" height="83.80395542457383" width="224"><g transform="matrix(1,0,0,1,0,19.28424169842134)"><svg viewBox="0 0 224 100.96461622210126" height="100.96461622210126" width="224"><g id="textblocktransform"><svg viewBox="0 0 224 100.96461622210126" height="100.96461622210126" width="224" id="textblock"><g><svg viewBox="0 0 224 100.96461622210126" height="100.96461622210126" width="224"><g transform="matrix(1,0,0,1,0,0)"><svg width="224" viewBox="3.5 -38.7 92.85 42.400000000000006" height="100.96461622210126" data-palette-color="#130912"><path d="M17.5 0L6.5 0 6.5-35 17.5-35Q23.3-35 27.6-32.8 31.9-30.6 34.3-26.68 36.7-22.75 36.7-17.5L36.7-17.5Q36.7-12.25 34.3-8.33 31.9-4.4 27.6-2.2 23.3 0 17.5 0L17.5 0ZM17.5-33.8L17.5-33.8 9.9-33.8 9.9-1.2 17.5-1.2Q24.75-1.2 28.83-5.5 32.9-9.8 32.9-17.5L32.9-17.5Q32.9-25.2 28.83-29.5 24.75-33.8 17.5-33.8ZM44.15-1.1L44.15-1.1 44.45-4.1 44.75-4.1Q46.7-2.4 49.15-1.45 51.6-0.5 54-0.5L54-0.5Q57.4-0.5 59.5-2.38 61.6-4.25 61.6-7.4L61.6-7.4Q61.6-9.15 60.82-10.65 60.05-12.15 58.27-13.7 56.5-15.25 53.4-17.05L53.4-17.05Q51.25-18.3 49.3-19.68 47.35-21.05 46.1-22.88 44.85-24.7 44.85-27.25L44.85-27.25Q44.85-31.05 47.6-33.38 50.35-35.7 54.85-35.7L54.85-35.7Q56.85-35.7 59.15-35.27 61.45-34.85 62.7-34.2L62.7-34.2 62.45-31.4 62.15-31.4Q59.3-34.5 54.85-34.5L54.85-34.5Q51.65-34.5 49.7-32.88 47.75-31.25 47.75-28.5L47.75-28.5Q47.75-26.45 48.82-24.98 49.9-23.5 51.6-22.33 53.3-21.15 55.25-20.05L55.25-20.05Q57.5-18.75 59.62-17.3 61.75-15.85 63.12-13.83 64.5-11.8 64.5-8.75L64.5-8.75Q64.5-5.95 63.2-3.83 61.9-1.7 59.52-0.5 57.15 0.7 54 0.7L54 0.7Q52 0.7 49.3 0.2 46.6-0.3 44.15-1.1ZM77.75 0L74.35 0 74.35-35 80.6-35Q86.65-35 90-32.43 93.35-29.85 93.35-25.25L93.35-25.25Q93.35-20.65 90-18.07 86.65-15.5 80.6-15.5L80.6-15.5 77.75-15.5 77.75 0ZM80.6-33.8L80.6-33.8 77.75-33.8 77.75-16.7 80.6-16.7Q89.75-16.7 89.75-25.25L89.75-25.25Q89.75-33.8 80.6-33.8Z" opacity="1" transform="matrix(1,0,0,1,0,0)" fill="#130912" class="wordmark-text-0" data-fill-palette-color="primary" id="text-0"></path></svg></g></svg></g></svg></g></svg></g><g transform="matrix(1,0,0,1,236.9537934284159,0)"><svg viewBox="0 0 136.00490710421334 139.53309961894394" height="139.53309961894394" width="136.00490710421334"><g><svg xmlns="http://www.w3.org/2000/svg" xmlns:xlink="http://www.w3.org/1999/xlink" version="1.1" x="0" y="0" viewBox="5.637740379986418 5.999 87.72526144487975 90.001" enable-background="new 0 0 100 100" xml:space="preserve" height="139.53309961894394" width="136.00490710421334" class="icon-icon-0" data-fill-palette-color="accent" id="icon-0"><g fill="#e77917" data-fill-palette-color="accent"><path d="M58.203 96H40.796c-2.211 0-4.011-1.8-4.011-4.011v-7.236c0-0.358-0.744-0.91-1.94-1.438l-0.194-0.09c-2.285-1.021-4.509-2.359-6.563-3.955-0.524-0.407-1.227-0.518-1.633-0.281l-6.016 3.473c-2.092 1.207-4.493 0.42-5.558-1.424L6.177 65.962c-0.536-0.928-0.678-2.008-0.401-3.043 0.278-1.036 0.941-1.901 1.87-2.437l0.938 1.286L7.787 60.4l0.414-0.238 0.912 1.301L8.32 60.094l4.765-2.75c1.446-0.84 1.446-0.84 1.32-1.739-0.201-1.366-0.29-2.776-0.29-4.503v-0.203c0-1.726 0.089-3.136 0.281-4.435l0.013-0.094c0.122-0.874 0.122-0.874-1.377-1.743l-4.709-2.719 0.696-1.425-0.79 1.371-0.44-0.254 0.699-1.423-0.843 1.34c-1.914-1.105-2.573-3.563-1.467-5.478l8.704-15.076c0.714-1.238 2.046-2.006 3.476-2.006 0.701 0 1.394 0.186 2.003 0.537l6.111 3.528c0.409 0.223 1.1 0.11 1.617-0.292 2.052-1.594 4.277-2.933 6.612-3.979l0.145-0.066c1.196-0.528 1.94-1.079 1.94-1.438v-7.236c0-2.212 1.8-4.012 4.011-4.012h17.407c2.212 0 4.011 1.8 4.011 4.012v7.236c0 0.358 0.745 0.909 1.942 1.438l0.171 0.079c2.323 1.042 4.538 2.376 6.586 3.966 0.516 0.401 1.205 0.513 1.616 0.292l6.083-3.512c2.022-1.147 4.446-0.383 5.508 1.451l8.703 15.077c1.104 1.916 0.446 4.373-1.469 5.479l-4.01 2.316-0.901-1.308 0.794 1.369-1.223 0.707c-1.544 0.895-1.544 0.895-1.418 1.795l0.016 0.116c0.188 1.314 0.272 2.698 0.272 4.387L84.884 51l0.001 0.102c0 1.72-0.088 3.123-0.277 4.413l-0.001 0.016c-0.136 0.975-0.136 0.975 1.362 1.844l1.269 0.732-0.692 1.426 0.794-1.368 3.341 1.929-0.698 1.425 0.79-1.372 0.605 0.351c0.905 0.521 1.569 1.387 1.846 2.423 0.278 1.035 0.136 2.115-0.399 3.043L84.12 81.037c-0.715 1.238-2.048 2.006-3.478 2.006-0.701 0-1.394-0.186-2.003-0.537l-6.084-3.513c-0.436-0.252-1.119-0.13-1.642 0.275-2.041 1.585-4.247 2.915-6.558 3.954l-0.227 0.103c-1.171 0.518-1.916 1.069-1.916 1.428v7.236C62.214 94.2 60.415 96 58.203 96zM36.123 80.419c1.643 0.727 3.827 1.965 3.827 4.334v7.236c0 0.466 0.379 0.847 0.846 0.847h17.407c0.467 0 0.848-0.381 0.848-0.847v-7.236c0-2.369 2.185-3.607 3.827-4.334l0.129-0.06c2.102-0.939 4.107-2.147 5.965-3.589 1.52-1.182 3.647-1.392 5.153-0.525l2.512 1.449-0.679 1.437 0.785-1.373 1.374 0.793-0.645 1.454 0.791-1.37 1.941 1.121c0.173 0.092 0.303 0.123 0.438 0.123 0.304 0 0.586-0.163 0.736-0.425l8.703-15.074c0.113-0.196 0.144-0.424 0.084-0.643-0.058-0.218-0.197-0.4-0.394-0.514l-5.343-3.085c-2.381-1.38-3.312-2.363-2.978-4.897l0.016-0.122c0.174-1.184 0.253-2.446 0.253-4.018L81.72 51l0.001-0.102c0-1.571-0.079-2.834-0.247-3.974l-0.018-0.145c-0.353-2.541 0.576-3.529 2.926-4.891l1.577-0.911 0.891 1.312-0.792-1.369 3.04-1.755 0.884 1.316-0.789-1.371 0.523-0.303c0.46-0.266 0.6-0.785 0.366-1.19l-8.703-15.075c-0.227-0.393-0.754-0.542-1.157-0.31l-3.479 2.008-0.84-1.342 0.75 1.394-2.604 1.5v0c-1.617 0.865-3.599 0.585-5.077-0.565-1.854-1.439-3.859-2.646-5.96-3.586l-0.085-0.041c-1.696-0.75-3.876-1.988-3.876-4.354v-7.236c0-0.467-0.381-0.847-0.848-0.847H40.796c-0.467 0-0.846 0.379-0.846 0.847v7.236c0 2.369-2.184 3.607-3.827 4.333l-0.75-1.397 0.655 1.44c-2.139 0.958-4.146 2.166-5.999 3.605-1.52 1.182-3.648 1.392-5.153 0.526l-2.513-1.451 0.679-1.436-0.785 1.374-3.413-1.971c-0.197-0.114-0.338-0.152-0.487-0.152-0.303 0-0.584 0.163-0.735 0.424L8.917 37.62c-0.113 0.196-0.143 0.425-0.084 0.643s0.199 0.4 0.394 0.514l5.34 3.083c2.408 1.396 3.334 2.386 2.971 4.977l-0.014 0.099c-0.167 1.133-0.245 2.396-0.245 3.964l0.001 0.125c-0.001 1.646 0.077 2.909 0.245 4.052l0.014 0.107c0.362 2.573-0.565 3.562-2.921 4.929L9.285 63.19c-0.253 0.146-0.393 0.329-0.452 0.547-0.059 0.219-0.029 0.446 0.084 0.642l8.705 15.076c0.228 0.396 0.756 0.541 1.157 0.311l3.479-2.009 0.841 1.341-0.73-1.405 2.578-1.485c0.553-0.32 1.282-0.511 2.039-0.511 1.072 0 2.153 0.382 3.044 1.074 1.844 1.434 3.839 2.636 5.931 3.574l0.087 0.041-0.129 0.271-0.434 1.211L36.123 80.419z" fill="#e77917" data-fill-palette-color="accent"></path></g><g fill="#e77917" data-fill-palette-color="accent"><path d="M49.5 78.996c-15.382 0-27.896-12.513-27.896-27.895 0-15.382 12.514-27.896 27.896-27.896s27.896 12.514 27.896 27.896C77.396 66.483 64.882 78.996 49.5 78.996zM49.5 26.37c-13.637 0-24.731 11.095-24.731 24.732 0 13.637 11.094 24.731 24.731 24.731 13.638 0 24.732-11.095 24.732-24.731C74.232 37.464 63.138 26.37 49.5 26.37z" fill="#e77917" data-fill-palette-color="accent"></path></g><path fill-rule="evenodd" clip-rule="evenodd" d="M60.46 62.594l-2.454-2.454 8.588-8.587-8.588-8.589 2.454-2.454 11.042 11.043L60.46 62.594zM44.735 61.963l7.537-22.557h3.471l-7.537 22.557H44.735zM39.529 61.726L28.487 50.685l11.042-11.042 2.454 2.454-8.588 8.588 8.588 8.588L39.529 61.726z" fill="#e77917" data-fill-palette-color="accent"></path></svg></g></svg></g></svg></g></svg></g></svg></g></svg></g><defs></defs></svg><rect width="448" height="360" fill="none" stroke="none" visibility="hidden"></rect></g></svg></g></svg>